<?xml version="1.0" encoding="utf-8"?>
<!-- Generator: Adobe Illustrator 14.0.0, SVG Export Plug-In . SVG Version: 6.00 Build 43363)  -->
<!DOCTYPE svg PUBLIC "-//W3C//DTD SVG 1.1//EN" "http://www.w3.org/Graphics/SVG/1.1/DTD/svg11.dtd">
<svg version="1.1" id="Layer_1" xmlns="http://www.w3.org/2000/svg" xmlns:xlink="http://www.w3.org/1999/xlink" x="0px" y="0px"
	 width="612px" height="792px" viewBox="0 0 612 792" enable-background="new 0 0 612 792" xml:space="preserve">
<line fill="none" stroke="#000000" x1="221.5" y1="297.5" x2="178.5" y2="334"/>
<line fill="none" stroke="#000000" x1="242" y1="297.5" x2="178.5" y2="361.5"/>
<line fill="none" stroke="#000000" x1="270.5" y1="297.5" x2="178.5" y2="457.5"/>
<line fill="none" stroke="#000000" x1="288" y1="297.5" x2="215.5" y2="511"/>
<line fill="none" stroke="#000000" x1="221.5" y1="297.5" x2="288" y2="297.5"/>
<line fill="none" stroke="#000000" x1="212.859" y1="304.834" x2="285.05" y2="306.187"/>
<line fill="none" stroke="#000000" x1="201.532" y1="314.449" x2="281.803" y2="315.75"/>
<line fill="none" stroke="#000000" x1="188.259" y1="325.716" x2="278.186" y2="326.402"/>
<line fill="none" stroke="#000000" x1="178.5" y1="341.5" x2="270.5" y2="343"/>
<line fill="none" stroke="#000000" x1="178.5" y1="361.5" x2="266.267" y2="361.5"/>
<line fill="none" stroke="#000000" x1="178.5" y1="390.5" x2="254.75" y2="391"/>
<line fill="none" stroke="#000000" x1="178.5" y1="432.5" x2="241.667" y2="433.941"/>
<line fill="none" stroke="#000000" x1="288" y1="297.5" x2="290.5" y2="301.5"/>
<line fill="none" stroke="#000000" x1="290.5" y1="301.5" x2="224.5" y2="511"/>
<line fill="none" stroke="#000000" x1="339" y1="297.5" x2="336" y2="301.5"/>
<line fill="none" stroke="#000000" x1="339" y1="297.5" x2="405" y2="299.5"/>
<line fill="none" stroke="#000000" x1="405" y1="299.5" x2="441.5" y2="334"/>
<line fill="none" stroke="#000000" x1="339" y1="297.5" x2="400.5" y2="511"/>
<line fill="none" stroke="#000000" x1="336" y1="301.5" x2="389.5" y2="511"/>
<line fill="none" stroke="#000000" x1="378.303" y1="433.941" x2="441.5" y2="433.941"/>
<line fill="none" stroke="#000000" x1="390.273" y1="475.497" x2="441.5" y2="475.5"/>
<line fill="none" stroke="#000000" x1="396.318" y1="496.484" x2="441.5" y2="496"/>
<line fill="none" stroke="#000000" x1="383.791" y1="452.992" x2="441.5" y2="452.5"/>
<line fill="none" stroke="#000000" x1="369.75" y1="404.25" x2="441.5" y2="404.25"/>
<line fill="none" stroke="#000000" x1="373.677" y1="417.881" x2="441.5" y2="417.5"/>
<line fill="none" stroke="#000000" x1="365.934" y1="391" x2="441.5" y2="390.5"/>
<line fill="none" stroke="#000000" x1="362.75" y1="379.949" x2="441.5" y2="380"/>
<line fill="none" stroke="#000000" x1="360.064" y1="370.625" x2="441.5" y2="371.5"/>
<line fill="none" stroke="#000000" x1="357.436" y1="361.5" x2="441.5" y2="361.5"/>
<line fill="none" stroke="#000000" x1="355.729" y1="355.578" x2="441.5" y2="356"/>
<line fill="none" stroke="#000000" x1="353.676" y1="348.449" x2="441.5" y2="350.5"/>
<line fill="none" stroke="#000000" x1="351.891" y1="342.25" x2="441.5" y2="342.25"/>
<line fill="none" stroke="#000000" x1="350.216" y1="336.438" x2="441.5" y2="337.5"/>
<line fill="none" stroke="#000000" x1="348.848" y1="331.688" x2="441.5" y2="334"/>
<line fill="none" stroke="#000000" x1="346.186" y1="322.446" x2="431.241" y2="324.303"/>
<line fill="none" stroke="#000000" x1="343.106" y1="312.389" x2="419.159" y2="313.377"/>
<line fill="none" stroke="#000000" x1="344.833" y1="318.869" x2="426.325" y2="319.992"/>
<line fill="none" stroke="#000000" x1="342.241" y1="308.752" x2="416.814" y2="310.667"/>
<line fill="none" stroke="#000000" x1="340.152" y1="301.5" x2="407.588" y2="301.946"/>
<line fill="none" stroke="#000000" x1="391" y1="404.25" x2="395.857" y2="417.5"/>
<line fill="none" stroke="#000000" x1="409.901" y1="404.25" x2="415" y2="417.5"/>
<line fill="none" stroke="#000000" x1="426.325" y1="404.25" x2="432.5" y2="417.5"/>
<line fill="none" stroke="#000000" x1="377" y1="371.063" x2="381.133" y2="380"/>
<line fill="none" stroke="#000000" x1="391" y1="371.5" x2="395.857" y2="379.949"/>
<line fill="none" stroke="#000000" x1="407.588" y1="371.5" x2="412.451" y2="379.949"/>
<line fill="none" stroke="#000000" x1="421.25" y1="371.283" x2="427.5" y2="380"/>
<line fill="none" stroke="#000000" x1="436.25" y1="371.5" x2="441.5" y2="380"/>
<line fill="none" stroke="#000000" x1="368.5" y1="348.449" x2="369.75" y2="355.578"/>
<line fill="none" stroke="#000000" x1="381.133" y1="349.09" x2="383.791" y2="355.578"/>
<line fill="none" stroke="#000000" x1="395.174" y1="349.09" x2="397.588" y2="355.578"/>
<line fill="none" stroke="#000000" x1="407.588" y1="349.09" x2="410.02" y2="355.578"/>
<line fill="none" stroke="#000000" x1="419.159" y1="349.979" x2="423.25" y2="355.578"/>
<line fill="none" stroke="#000000" x1="431.241" y1="349.979" x2="436.25" y2="355.578"/>
<line fill="none" stroke="#000000" x1="361.75" y1="332.844" x2="362.75" y2="336.438"/>
<line fill="none" stroke="#000000" x1="373.677" y1="332.308" x2="375" y2="336.438"/>
<line fill="none" stroke="#000000" x1="385.579" y1="332.604" x2="386.75" y2="336.438"/>
<line fill="none" stroke="#000000" x1="396.695" y1="332.844" x2="397.588" y2="336.438"/>
<line fill="none" stroke="#000000" x1="405.625" y1="333.105" x2="407.588" y2="336.969"/>
<line fill="none" stroke="#000000" x1="419.159" y1="333.442" x2="421.205" y2="336.438"/>
<line fill="none" stroke="#000000" x1="429.412" y1="333.105" x2="431.241" y2="337.5"/>
<line fill="none" stroke="#000000" x1="355.729" y1="318.869" x2="357.436" y2="322.446"/>
<line fill="none" stroke="#000000" x1="365.934" y1="319.992" x2="368.5" y2="322.446"/>
<line fill="none" stroke="#000000" x1="377" y1="319.992" x2="377" y2="323.375"/>
<line fill="none" stroke="#000000" x1="386.164" y1="319.992" x2="386.75" y2="321.684"/>
<line fill="none" stroke="#000000" x1="396.695" y1="319.992" x2="398.615" y2="323.591"/>
<line fill="none" stroke="#000000" x1="406.606" y1="319.431" x2="408.804" y2="322.446"/>
<line fill="none" stroke="#000000" x1="415.887" y1="319.431" x2="418.909" y2="321.791"/>
<line fill="none" stroke="#000000" x1="350.216" y1="308.752" x2="351.891" y2="312.389"/>
<line fill="none" stroke="#000000" x1="360.064" y1="309.71" x2="361.75" y2="310.571"/>
<line fill="none" stroke="#000000" x1="368.5" y1="309.427" x2="368.5" y2="310.141"/>
<line fill="none" stroke="#000000" x1="373.87" y1="310.571" x2="375" y2="310.667"/>
<line fill="none" stroke="#000000" x1="382.462" y1="310.141" x2="385.579" y2="312.389"/>
<line fill="none" stroke="#000000" x1="388.713" y1="310.571" x2="391" y2="311.265"/>
<line fill="none" stroke="#000000" x1="396.381" y1="311.265" x2="397.588" y2="312.389"/>
<line fill="none" stroke="#000000" x1="402.125" y1="310.141" x2="403.717" y2="311.265"/>
<line fill="none" stroke="#000000" x1="408.804" y1="310.461" x2="411.25" y2="314.449"/>
<line fill="none" stroke="#000000" x1="343.106" y1="304.834" x2="407.588" y2="306.187"/>
<line fill="none" stroke="#000000" x1="290.5" y1="299.5" x2="336" y2="299.5"/>
<line fill="none" stroke="#000000" x1="290.5" y1="301.5" x2="334.75" y2="301.946"/>
<line fill="none" stroke="#000000" x1="326" y1="301.946" x2="344.833" y2="500"/>
<line fill="none" stroke="#000000" x1="313.25" y1="301.946" x2="307.75" y2="500"/>
<line fill="none" stroke="#000000" x1="301.75" y1="301.946" x2="267.5" y2="500"/>
<line fill="none" stroke="#000000" x1="229.5" y1="500" x2="386.75" y2="500.231"/>
<line fill="none" stroke="#000000" x1="229.5" y1="500" x2="229.5" y2="495.129"/>
<line fill="none" stroke="#000000" x1="247.878" y1="436.791" x2="370.852" y2="437.975"/>
<line fill="none" stroke="#000000" x1="359.734" y1="394.44" x2="261.206" y2="394.486"/>
<line fill="none" stroke="#000000" x1="270.5" y1="364.985" x2="352.488" y2="366.067"/>
<line fill="none" stroke="#000000" x1="276.792" y1="345.013" x2="347.222" y2="345.443"/>
<line fill="none" stroke="#000000" x1="281.803" y1="329.107" x2="343.15" y2="329.5"/>
<line fill="none" stroke="#000000" x1="285.696" y1="316.75" x2="340.152" y2="317.76"/>
<line fill="none" stroke="#000000" x1="288.551" y1="307.688" x2="337.852" y2="308.752"/>
</svg>
